<svg width="810" height="193" viewBox="0 0 810 193" fill="none" xmlns="http://www.w3.org/2000/svg">
<g filter="url(#filter0_d_104_457)">
<path d="M44.6719 0.501688L2.93718 37.403C2.50783 37.7826 2.26196 38.3282 2.26196 38.9013V121.562C2.26196 123.285 4.2958 124.202 5.58675 123.06L71.8193 64.4983C72.7196 63.7023 72.7196 62.2977 71.8193 61.5017L49.1958 41.4983C47.8162 40.2784 48.6536 38 50.4953 38H133.17C134.275 38 135.152 38.8954 135.152 40V108.562C135.152 110.285 137.186 111.202 138.477 110.06L177.455 75.597C177.884 75.2174 178.13 74.6718 178.13 74.0987V38.9013C178.13 38.3282 177.884 37.7826 177.455 37.403L135.72 0.501688C135.354 0.178431 134.883 0 134.395 0H45.9967C45.5087 0 45.0375 0.17843 44.6719 0.501688Z" fill="url(#paint0_linear_104_457)"/>
<path d="M102.16 88.6714L3.95653 175.502C2.57686 176.722 3.4397 179 5.28132 179H81.6927C82.7973 179 83.6927 178.105 83.6927 177V143C83.6927 141.895 84.5881 141 85.6927 141H124.67C125.775 141 126.67 141.895 126.67 143V175C126.67 176.105 127.565 177 128.67 177H199.426C201.268 177 202.131 174.722 200.751 173.502L104.81 88.6714C104.053 88.0024 102.917 88.0024 102.16 88.6714Z" fill="url(#paint1_linear_104_457)"/>
<path d="M229.848 163V152.056C230.808 152.056 231.896 151.992 233.112 151.864C234.392 151.672 235.576 151.32 236.664 150.808C237.752 150.296 238.648 149.496 239.352 148.408C240.12 147.32 240.504 145.88 240.504 144.088V114.712C240.504 113.56 240.248 112.536 239.736 111.64C239.288 110.68 238.616 109.848 237.72 109.144C236.824 108.376 235.704 107.8 234.36 107.416C233.016 106.968 231.512 106.744 229.848 106.744V95.8C233.368 95.8 236.472 96.344 239.16 97.432C241.848 98.456 244.088 99.864 245.88 101.656C247.736 103.448 249.112 105.464 250.008 107.704C250.968 109.944 251.448 112.28 251.448 114.712V144.088C251.448 147.928 250.712 151.096 249.24 153.592C247.832 156.024 246.008 157.944 243.768 159.352C241.528 160.696 239.16 161.656 236.664 162.232C234.168 162.744 231.896 163 229.848 163ZM213.816 163V95.8H224.856V163H213.816ZM277.433 163.48C276.025 163.48 274.233 163.128 272.057 162.424C269.945 161.72 267.833 160.632 265.721 159.16C263.673 157.688 261.945 155.736 260.537 153.304C259.129 150.872 258.425 147.928 258.425 144.472V95.8H269.561V144.472C269.561 145.944 269.881 147.192 270.521 148.216C271.225 149.24 272.025 150.072 272.921 150.712C273.881 151.288 274.777 151.736 275.609 152.056C276.505 152.312 277.113 152.44 277.433 152.44V163.48ZM282.425 163.48V152.44C282.809 152.44 283.417 152.312 284.249 152.056C285.081 151.8 285.977 151.384 286.937 150.808C287.897 150.168 288.697 149.336 289.337 148.312C290.041 147.288 290.393 146.008 290.393 144.472V95.8H301.337V144.472C301.337 147.928 300.633 150.872 299.225 153.304C297.881 155.736 296.153 157.72 294.041 159.256C291.993 160.728 289.913 161.816 287.801 162.52C285.689 163.16 283.897 163.48 282.425 163.48ZM323.765 163V153.304H326.549C328.597 153.304 330.325 153.016 331.733 152.44C333.205 151.864 334.389 151.096 335.285 150.136C336.245 149.112 336.917 147.992 337.301 146.776C337.749 145.56 337.973 144.376 337.973 143.224C337.973 140.856 337.173 138.776 335.573 136.984C334.037 135.128 331.637 134.2 328.373 134.2H323.765V124.504H328.373C330.613 124.504 332.405 124.088 333.749 123.256C335.157 122.424 336.181 121.336 336.821 119.992C337.525 118.584 337.877 117.08 337.877 115.48C337.877 113.944 337.493 112.408 336.725 110.872C336.021 109.272 334.869 107.992 333.269 107.032C331.733 106.008 329.749 105.496 327.317 105.496H323.765V95.8H328.757C332.277 95.8 335.317 96.376 337.877 97.528C340.437 98.616 342.517 100.088 344.117 101.944C345.717 103.736 346.901 105.752 347.669 107.992C348.437 110.232 348.821 112.504 348.821 114.808C348.821 117.816 348.213 120.632 346.997 123.256C345.845 125.816 344.277 127.832 342.293 129.304C343.637 130.328 344.789 131.608 345.749 133.144C346.773 134.616 347.541 136.28 348.053 138.136C348.629 139.928 348.917 141.88 348.917 143.992C348.917 147.256 348.181 150.36 346.709 153.304C345.237 156.184 342.997 158.52 339.989 160.312C337.045 162.104 333.333 163 328.853 163H323.765ZM307.829 163V95.8H318.773V163H307.829ZM374.37 163.48C372.962 163.48 371.17 163.128 368.994 162.424C366.882 161.72 364.77 160.632 362.658 159.16C360.61 157.688 358.882 155.736 357.474 153.304C356.066 150.872 355.362 147.928 355.362 144.472V95.8H366.498V144.472C366.498 145.944 366.818 147.192 367.458 148.216C368.162 149.24 368.962 150.072 369.858 150.712C370.818 151.288 371.714 151.736 372.546 152.056C373.442 152.312 374.05 152.44 374.37 152.44V163.48ZM379.362 163.48V152.44C379.746 152.44 380.354 152.312 381.186 152.056C382.018 151.8 382.914 151.384 383.874 150.808C384.834 150.168 385.634 149.336 386.274 148.312C386.978 147.288 387.33 146.008 387.33 144.472V95.8H398.274V144.472C398.274 147.928 397.57 150.872 396.162 153.304C394.818 155.736 393.09 157.72 390.978 159.256C388.93 160.728 386.85 161.816 384.738 162.52C382.626 163.16 380.834 163.48 379.362 163.48ZM436.254 173.272L429.246 163.48V152.44C429.502 152.44 430.046 152.312 430.878 152.056C431.71 151.8 432.606 151.384 433.566 150.808C434.59 150.168 435.454 149.336 436.158 148.312C436.926 147.224 437.31 145.88 437.31 144.28V114.232C437.31 113.528 437.022 112.568 436.446 111.352C435.934 110.072 435.102 108.92 433.95 107.896C432.798 106.808 431.23 106.264 429.246 106.264V95.32C432.446 95.32 435.23 95.96 437.598 97.24C439.966 98.456 441.95 100.024 443.55 101.944C445.15 103.8 446.334 105.72 447.102 107.704C447.934 109.624 448.35 111.288 448.35 112.696V144.28C448.35 146.904 447.902 149.176 447.006 151.096C446.174 153.016 445.086 154.68 443.742 156.088C442.462 157.432 441.086 158.616 439.614 159.64L444.99 167.416L436.254 173.272ZM424.254 163.48C422.782 163.48 420.99 163.128 418.878 162.424C416.766 161.72 414.654 160.6 412.542 159.064C410.494 157.528 408.766 155.544 407.358 153.112C406.014 150.68 405.342 147.736 405.342 144.28V112.696C405.342 111.224 405.726 109.528 406.494 107.608C407.262 105.624 408.446 103.704 410.046 101.848C411.646 99.992 413.63 98.456 415.998 97.24C418.366 95.96 421.15 95.32 424.35 95.32V106.264C422.366 106.264 420.798 106.808 419.646 107.896C418.494 108.92 417.63 110.072 417.054 111.352C416.542 112.568 416.286 113.528 416.286 114.232V144.28C416.286 145.88 416.638 147.224 417.342 148.312C418.046 149.4 418.878 150.264 419.838 150.904C420.862 151.48 421.79 151.896 422.622 152.152C423.454 152.344 423.998 152.44 424.254 152.44V163.48ZM474.495 163.48C473.087 163.48 471.295 163.128 469.119 162.424C467.007 161.72 464.895 160.632 462.783 159.16C460.735 157.688 459.007 155.736 457.599 153.304C456.191 150.872 455.487 147.928 455.487 144.472V95.8H466.623V144.472C466.623 145.944 466.943 147.192 467.583 148.216C468.287 149.24 469.087 150.072 469.983 150.712C470.943 151.288 471.839 151.736 472.671 152.056C473.567 152.312 474.175 152.44 474.495 152.44V163.48ZM479.487 163.48V152.44C479.871 152.44 480.479 152.312 481.311 152.056C482.143 151.8 483.039 151.384 483.999 150.808C484.959 150.168 485.759 149.336 486.399 148.312C487.103 147.288 487.455 146.008 487.455 144.472V95.8H498.399V144.472C498.399 147.928 497.695 150.872 496.287 153.304C494.943 155.736 493.215 157.72 491.103 159.256C489.055 160.728 486.975 161.816 484.863 162.52C482.751 163.16 480.959 163.48 479.487 163.48ZM505.659 163V95.8H540.603V106.648H516.699V124.12H531.579V135.064H516.699V152.056H540.603V163H505.659ZM602.786 163L601.346 145.912C601.154 143.352 600.738 141.24 600.098 139.576C599.522 137.912 598.562 136.696 597.218 135.928C595.938 135.096 594.146 134.712 591.842 134.776H586.754V124.888H591.746C594.946 124.888 597.282 124.024 598.754 122.296C600.226 120.504 600.962 118.232 600.962 115.48C600.962 112.472 600.098 110.168 598.37 108.568C596.642 106.904 594.21 106.072 591.074 106.072H586.754V95.8H592.226C596.13 95.864 599.49 96.632 602.306 98.104C605.186 99.512 607.394 101.592 608.93 104.344C610.53 107.096 611.33 110.456 611.33 114.424C611.33 118.072 610.722 121.144 609.506 123.64C608.354 126.136 606.786 128.12 604.802 129.592C606.786 130.744 608.322 132.504 609.41 134.872C610.562 137.176 611.234 139.608 611.426 142.168L613.058 163H602.786ZM570.818 163V95.8H581.858V163H570.818ZM619.284 163V95.8H654.228V106.648H630.324V124.12H645.204V135.064H630.324V152.056H654.228V163H619.284ZM662.037 163V95.8H673.077V163H662.037ZM681.066 163V95.8H692.106V152.152H717.162V163H681.066ZM722.691 163V95.8H733.731V152.152H758.787V163H722.691ZM775.836 163V138.808L762.012 95.8H773.436L787.26 138.712V163H775.836ZM790.044 131.704L784.956 113.944L791.676 95.8H803.004L790.812 131.704H790.044Z" fill="#4F4F4F"/>
</g>
<defs>
<filter id="filter0_d_104_457" x="-2" y="0" width="812.708" height="201" filterUnits="userSpaceOnUse" color-interpolation-filters="sRGB">
<feFlood flood-opacity="0" result="BackgroundImageFix"/>
<feColorMatrix in="SourceAlpha" type="matrix" values="0 0 0 0 0 0 0 0 0 0 0 0 0 0 0 0 0 0 127 0" result="hardAlpha"/>
<feOffset dx="2" dy="4"/>
<feGaussianBlur stdDeviation="2"/>
<feComposite in2="hardAlpha" operator="out"/>
<feColorMatrix type="matrix" values="0 0 0 0 0 0 0 0 0 0 0 0 0 0 0 0 0 0 0.5 0"/>
<feBlend mode="normal" in2="BackgroundImageFix" result="effect1_dropShadow_104_457"/>
<feBlend mode="normal" in="SourceGraphic" in2="effect1_dropShadow_104_457" result="shape"/>
</filter>
<linearGradient id="paint0_linear_104_457" x1="-8.48236" y1="153.5" x2="137.656" y2="-9.53148" gradientUnits="userSpaceOnUse">
<stop offset="0.104167" stop-color="#FFBB0B"/>
<stop offset="0.976698" stop-color="#FF2E00"/>
</linearGradient>
<linearGradient id="paint1_linear_104_457" x1="-8.48236" y1="153.5" x2="137.656" y2="-9.53148" gradientUnits="userSpaceOnUse">
<stop offset="0.104167" stop-color="#FFBB0B"/>
<stop offset="0.976698" stop-color="#FF2E00"/>
</linearGradient>
</defs>
</svg>
