<svg width="26" height="26" viewBox="0 0 26 26" fill="none" xmlns="http://www.w3.org/2000/svg">
<path d="M13.4286 1C6.80006 1 1.42856 6.373 1.42856 13C1.42856 19.627 6.80006 25 13.4286 25C20.0571 25 25.4286 19.627 25.4286 13C25.4286 6.373 20.0571 1 13.4286 1ZM18.9891 16.4395C19.2703 16.7208 19.4283 17.1022 19.4283 17.5C19.4283 17.8978 19.2703 18.2792 18.9891 18.5605C18.7078 18.8418 18.3263 18.9998 17.9286 18.9998C17.5308 18.9998 17.1493 18.8418 16.8681 18.5605L13.4286 15.121L9.98906 18.5605C9.85008 18.7003 9.68484 18.8112 9.50284 18.8869C9.32084 18.9626 9.12567 19.0016 8.92856 19.0016C8.73145 19.0016 8.53628 18.9626 8.35428 18.8869C8.17228 18.8112 8.00704 18.7003 7.86806 18.5605C7.72864 18.4213 7.61803 18.256 7.54257 18.074C7.4671 17.8921 7.42826 17.697 7.42826 17.5C7.42826 17.303 7.4671 17.1079 7.54257 16.926C7.61803 16.744 7.72864 16.5787 7.86806 16.4395L11.3076 13L7.86806 9.5605C7.5868 9.27924 7.42878 8.89776 7.42878 8.5C7.42878 8.10224 7.5868 7.72076 7.86806 7.4395C8.14932 7.15824 8.53079 7.00023 8.92856 7.00023C9.32632 7.00023 9.7078 7.15824 9.98906 7.4395L13.4286 10.879L16.8681 7.4395C17.1493 7.15824 17.5308 7.00023 17.9286 7.00023C18.3263 7.00023 18.7078 7.15824 18.9891 7.4395C19.2703 7.72076 19.4283 8.10224 19.4283 8.5C19.4283 8.89776 19.2703 9.27924 18.9891 9.5605L15.5496 13L18.9891 16.4395Z" fill="#4A4A4A"/>
</svg>
