<svg width="24" height="24" viewBox="0 0 24 24" fill="none" xmlns="http://www.w3.org/2000/svg">
<path d="M6.36859 17.631C6.51686 17.7801 6.69315 17.8985 6.88732 17.9792C7.08149 18.06 7.28971 18.1016 7.5 18.1016C7.71029 18.1016 7.91851 18.06 8.11268 17.9792C8.30678 17.8985 8.483 17.7802 8.63124 17.6312C8.6313 17.6311 8.63135 17.6311 8.63141 17.631L12 14.2624L15.3688 17.6312C15.6688 17.9312 16.0757 18.0998 16.5 18.0998C16.9243 18.0998 17.3312 17.9312 17.6312 17.6312C17.9312 17.3312 18.0998 16.9243 18.0998 16.5C18.0998 16.0757 17.9312 15.6688 17.6312 15.3688L14.2624 12L17.6312 8.63121C17.9312 8.33119 18.0998 7.92429 18.0998 7.5C18.0998 7.07571 17.9312 6.66881 17.6312 6.36879C17.3312 6.06877 16.9243 5.90023 16.5 5.90023C16.0757 5.90023 15.6688 6.06877 15.3688 6.36879L12 9.73758L8.63121 6.36879C8.33119 6.06877 7.92429 5.90023 7.5 5.90023C7.07571 5.90023 6.66881 6.06877 6.36879 6.36879C6.06877 6.66881 5.90023 7.07571 5.90023 7.5C5.90023 7.92429 6.06877 8.33119 6.36879 8.63121L9.73758 12L6.36885 15.3687C6.22013 15.5172 6.10214 15.6935 6.02164 15.8877C5.94113 16.0818 5.8997 16.2899 5.8997 16.5C5.8997 16.7101 5.94113 16.9182 6.02164 17.1123C6.10209 17.3063 6.21999 17.4826 6.36859 17.631ZM6.36859 17.631L6.4395 17.5605M6.36859 17.631C6.36867 17.6311 6.36876 17.6312 6.36885 17.6313L6.4395 17.5605M6.4395 17.5605C6.57848 17.7003 6.74372 17.8112 6.92572 17.8869C7.10772 17.9626 7.30289 18.0016 7.5 18.0016C7.69711 18.0016 7.89228 17.9626 8.07428 17.8869C8.25628 17.8112 8.42152 17.7003 8.5605 17.5605H6.4395ZM0.1 12C0.1 5.42822 5.42674 0.1 12 0.1C18.5733 0.1 23.9 5.42822 23.9 12C23.9 18.5718 18.5733 23.9 12 23.9C5.42674 23.9 0.1 18.5718 0.1 12Z" fill="#00B16A" stroke="#4A4A4A" stroke-width="0.2"/>
</svg>
