<svg width="32" height="32" viewBox="0 0 32 32" fill="none" xmlns="http://www.w3.org/2000/svg">
<path d="M3 10.7356H18.7728V13.6033H3V10.7356ZM3 7.86778H18.7728V5H3V7.86778ZM3 19.3389H13.0372V16.4711H3V19.3389ZM24.5227 14.8508L25.5407 13.8328C25.6734 13.6998 25.831 13.5944 26.0044 13.5224C26.1779 13.4505 26.3638 13.4134 26.5516 13.4134C26.7394 13.4134 26.9254 13.4505 27.0988 13.5224C27.2723 13.5944 27.4299 13.6998 27.5625 13.8328L28.5806 14.8508C29.1398 15.41 29.1398 16.3134 28.5806 16.8726L27.5625 17.8907L24.5227 14.8508ZM23.5046 15.8689L15.905 23.4685V26.5083H18.9449L26.5445 18.9087L23.5046 15.8689Z" fill="#4A4A4A"/>
</svg>
