<svg width="32" height="32" viewBox="0 0 32 32" fill="none" xmlns="http://www.w3.org/2000/svg">
<path d="M28.5099 16.8019L27.5625 17.7492L24.6641 14.8508L25.6115 13.9035L25.6115 13.9034C25.7349 13.7798 25.8814 13.6817 26.0427 13.6148C26.2041 13.5479 26.377 13.5134 26.5516 13.5134C26.7263 13.5134 26.8992 13.5479 27.0605 13.6148C27.2218 13.6817 27.3684 13.7798 27.4917 13.9034L27.4918 13.9035L28.5099 14.9215C29.03 15.4417 29.03 16.2817 28.5099 16.8019ZM3.1 10.8356H18.6728V13.5033H3.1V10.8356ZM18.6728 7.76778H3.1V5.1H18.6728V7.76778ZM12.9372 16.5711V19.2389H3.1V16.5711H12.9372ZM16.005 26.4083V23.5099L23.5046 16.0103L26.403 18.9087L18.9034 26.4083H16.005Z" fill="#00B16A" stroke="black" stroke-width="0.2"/>
</svg>
