<svg width="200" height="179" viewBox="0 0 200 179" fill="none" xmlns="http://www.w3.org/2000/svg">
<path d="M42.6719 0.501688L0.937177 37.403C0.507827 37.7826 0.261965 38.3282 0.261965 38.9013V121.562C0.261965 123.285 2.2958 124.202 3.58675 123.06L69.8193 64.4983C70.7196 63.7023 70.7196 62.2977 69.8193 61.5017L47.1958 41.4983C45.8162 40.2784 46.6536 38 48.4953 38H131.17C132.275 38 133.152 38.8954 133.152 40V108.562C133.152 110.285 135.186 111.202 136.477 110.06L175.455 75.597C175.884 75.2174 176.13 74.6718 176.13 74.0987V38.9013C176.13 38.3282 175.884 37.7826 175.455 37.403L133.72 0.501688C133.354 0.178431 132.883 0 132.395 0H43.9967C43.5087 0 43.0375 0.17843 42.6719 0.501688Z" fill="url(#paint0_linear_104_431)"/>
<path d="M100.16 88.6714L1.95653 175.502C0.576864 176.722 1.4397 179 3.28132 179H79.6927C80.7973 179 81.6927 178.105 81.6927 177V143C81.6927 141.895 82.5881 141 83.6927 141H122.67C123.775 141 124.67 141.895 124.67 143V175C124.67 176.105 125.565 177 126.67 177H197.426C199.268 177 200.131 174.722 198.751 173.502L102.81 88.6714C102.053 88.0024 100.917 88.0024 100.16 88.6714Z" fill="url(#paint1_linear_104_431)"/>
<defs>
<linearGradient id="paint0_linear_104_431" x1="-10.4824" y1="153.5" x2="135.656" y2="-9.53148" gradientUnits="userSpaceOnUse">
<stop offset="0.104167" stop-color="#FFBB0B"/>
<stop offset="0.976698" stop-color="#FF2E00"/>
</linearGradient>
<linearGradient id="paint1_linear_104_431" x1="-10.4824" y1="153.5" x2="135.656" y2="-9.53148" gradientUnits="userSpaceOnUse">
<stop offset="0.104167" stop-color="#FFBB0B"/>
<stop offset="0.976698" stop-color="#FF2E00"/>
</linearGradient>
</defs>
</svg>
